<svg id="illustration" xmlns="http://www.w3.org/2000/svg" viewBox="0 0 350 350"><defs><style>.cls-1{fill:none;}.cls-2{fill:#ececeb;}.cls-3{clip-path:url(#clip-path);}.cls-4{fill:#594165;}.cls-10,.cls-11,.cls-12,.cls-13,.cls-14,.cls-15,.cls-17,.cls-4,.cls-5,.cls-6,.cls-7,.cls-8,.cls-9{fill-rule:evenodd;}.cls-5{fill:#734d60;}.cls-6{fill:#96637c;}.cls-7{fill:#543042;}.cls-8{fill:#b3889d;}.cls-9{fill:#dfbda5;}.cls-10,.cls-18{fill:#c3987b;}.cls-11,.cls-19{fill:#8b6651;}.cls-12{fill:#785d88;}.cls-13{fill:#9075a0;}.cls-14{opacity:0.1;}.cls-15{fill:#e8cab6;}.cls-16{fill:#2b2b2b;}.cls-17{fill:#a688ba;}</style><clipPath id="clip-path"><circle class="cls-1" cx="175" cy="175" r="175"/></clipPath></defs><circle class="cls-2" cx="175" cy="175" r="175"/><g class="cls-3"><polygon class="cls-4" points="81.56 191.88 97.52 187.59 110.77 211.43 107.67 223.85 64.84 226.78 81.56 191.88"/><polygon class="cls-5" points="199.16 424.35 218.75 413.43 204.54 394.22 214.7 378.47 234.86 283.01 174.95 264.18 97.66 263.88 65.37 288.83 44.91 279.16 63.33 402.27 81.58 414.29 199.16 424.35"/><polygon class="cls-5" points="234.86 283.01 258.18 362.45 247.46 388.38 203.05 382.77 203.05 276.84 234.86 283.01"/><polygon class="cls-6" points="149.04 311.31 168.85 278.57 203.41 280.89 218.75 413.43 190.48 413.6 100.52 414.17 62.8 414.4 63.33 402.27 71.99 300.77 100.14 291.24 97.66 263.88 149.04 311.31"/><polygon class="cls-7" points="120.02 284.52 58.49 305.34 44.91 279.16 97.66 263.88 120.02 284.52"/><polygon class="cls-8" points="97.66 263.88 108.41 382.4 149.04 311.31 97.66 263.88"/><polygon class="cls-8" points="149.04 311.31 181.6 370.77 185.07 279.66 168.85 278.57 149.04 311.31"/><polygon class="cls-5" points="181.6 370.77 190.48 413.6 100.52 414.17 108.41 382.4 149.04 311.31 181.6 370.77"/><polygon class="cls-9" points="280.67 132.55 274.16 170.49 239.59 283.31 168.85 278.57 149.04 311.31 97.66 263.88 110.94 210.52 93.04 203.03 89.3 168.96 118.24 161.49 128.98 190.43 139.24 189.03 149.51 156.35 142.98 111.55 196.19 91.94 243.79 119.48 250.8 93.81 280.67 132.55"/><polygon class="cls-10" points="144.8 112.27 173.78 167.56 168.85 278.57 149.04 311.31 97.66 263.88 110.77 211.43 120.1 214.06 128.98 192.61 139.97 190.48 150.97 156.72 144.8 112.27"/><polygon class="cls-11" points="225.14 233.28 214.91 238.5 207.85 230.1 225.14 233.28"/><polygon class="cls-11" points="101.19 172.61 113.92 172.97 115.37 191.51 101.19 172.61"/><polygon class="cls-11" points="168.85 278.57 145.54 268.95 149.04 311.31 168.85 278.57"/><polygon class="cls-11" points="110.06 210.16 120.1 214.06 107.67 223.85 110.06 210.16"/><polygon class="cls-12" points="279.21 132.19 289.17 116 310.23 102.08 274.16 170.49 279.21 132.19"/><polygon class="cls-13" points="144.8 112.27 115.37 95.01 67.38 80.27 76.4 151.27 117.29 157.2 150.97 156.72 144.8 112.27"/><polygon class="cls-5" points="63.33 402.27 71.99 300.77 58.49 305.34 44.91 279.16 17.09 353.88 63.33 402.27"/><polygon class="cls-14" points="149.04 311.31 211.75 281.45 168.85 278.57 149.04 311.31"/><polygon class="cls-12" points="279.21 132.19 250.96 97.45 234.03 81.52 216.7 55.32 310.23 102.08 279.21 132.19"/><polygon class="cls-12" points="144.8 112.27 196.19 93.76 163.69 71.58 128.05 53.64 67.38 80.27 144.8 112.27"/><polygon class="cls-13" points="216.7 55.32 160.45 27.19 128.05 53.64 196.19 93.76 244.52 121.66 250.96 97.45 216.7 55.32"/><polygon class="cls-12" points="150.97 156.72 76.4 151.27 81.56 191.88 93.04 203.03 90.39 169.69 117.88 162.94 128.98 192.61 139.97 190.48 150.97 156.72"/><polygon class="cls-10" points="258.8 182.76 173.75 167.44 196.16 190.79 207.84 230.01 258.8 182.76"/><polygon class="cls-15" points="220.36 175.84 207.84 230.01 225.11 233.28 233.99 178.29 220.36 175.84"/><polygon class="cls-12" points="173.75 167.44 258.8 182.76 261.5 171.75 179.43 161.84 173.75 167.44"/><polygon class="cls-11" points="101.13 172.5 113.86 172.86 116.97 198.02 101.13 172.5"/><circle class="cls-16" cx="243.39" cy="201.45" r="6.66"/><circle class="cls-16" cx="196.43" cy="192.44" r="6.66"/></g><polygon class="cls-13" points="151.71 125.46 115.37 95.01 67.38 80.27 76.4 151.27 117.29 157.2 150.97 156.72 151.71 125.46"/><polygon class="cls-12" points="279.21 132.19 250.96 97.45 234.03 81.52 216.7 55.32 310.23 102.08 279.21 132.19"/><polygon class="cls-12" points="151.71 125.46 263.04 151.44 163.69 71.58 128.05 53.64 67.38 80.27 151.71 125.46"/><polygon class="cls-13" points="216.7 55.32 160.45 27.19 128.05 53.64 263.04 151.44 280.67 132.55 216.7 55.32"/><polygon class="cls-17" points="151.71 125.46 310.23 102.08 280.67 132.55 263.04 151.44 151.71 125.46"/><polygon class="cls-13" points="64.84 226.78 101.7 247.73 107.67 223.85 64.84 226.78"/><polygon class="cls-18" points="226.58 256.08 218.85 260.19 198.81 257.77 186.73 248.12 210.5 250.9 226.58 256.08"/><polygon class="cls-19" points="211.07 248.54 229.52 254.82 226.58 256.08 187.25 248.39 183.35 246.1 211.07 248.54"/></svg>